<svg width="34" height="29" viewBox="0 0 34 29" fill="none" xmlns="http://www.w3.org/2000/svg">
<path d="M1.21429 5.32653H32.7857C33.4564 5.32653 34 4.79662 34 4.14286V1.18367C34 0.529916 33.4564 0 32.7857 0H1.21429C0.543621 0 0 0.529916 0 1.18367V4.14286C0 4.79662 0.543621 5.32653 1.21429 5.32653ZM1.21429 17.1633H32.7857C33.4564 17.1633 34 16.6334 34 15.9796V13.0204C34 12.3667 33.4564 11.8367 32.7857 11.8367H1.21429C0.543621 11.8367 0 12.3667 0 13.0204V15.9796C0 16.6334 0.543621 17.1633 1.21429 17.1633ZM1.21429 29H32.7857C33.4564 29 34 28.4701 34 27.8163V24.8571C34 24.2034 33.4564 23.6735 32.7857 23.6735H1.21429C0.543621 23.6735 0 24.2034 0 24.8571V27.8163C0 28.4701 0.543621 29 1.21429 29Z" fill="black"/>
</svg>
