<svg width="34" height="30" viewBox="0 0 34 30" fill="none" xmlns="http://www.w3.org/2000/svg">
<path d="M33.5352 25.0748L26.9145 19.4277C26.6156 19.1729 26.2105 19.0312 25.7855 19.0312H24.7031C26.5359 17.0318 27.625 14.517 27.625 11.7812C27.625 5.27324 21.4426 0 13.8125 0C6.18242 0 0 5.27324 0 11.7812C0 18.2893 6.18242 23.5625 13.8125 23.5625C17.0199 23.5625 19.9684 22.6336 22.3125 21.0703V21.9936C22.3125 22.3561 22.4785 22.7016 22.7773 22.9564L29.398 28.6035C30.0223 29.1359 31.0316 29.1359 31.6492 28.6035L33.5285 27.0006C34.1527 26.4682 34.1527 25.6072 33.5352 25.0748ZM13.8125 19.0312C9.11758 19.0312 5.3125 15.7914 5.3125 11.7812C5.3125 7.77676 9.11094 4.53125 13.8125 4.53125C18.5074 4.53125 22.3125 7.77109 22.3125 11.7812C22.3125 15.7857 18.5141 19.0312 13.8125 19.0312Z" fill="black"/>
</svg>
